<svg width="512" height="512" viewBox="0 0 512 512" fill="none" xmlns="http://www.w3.org/2000/svg">
<g clip-path="url(#clip0)">
<path d="M149.333 106.667H362.667C444.992 106.667 512 173.675 512 256C512 338.325 444.992 405.333 362.667 405.333H149.333C67.008 405.333 -1.52588e-05 338.325 -1.52588e-05 256C-1.52588e-05 173.675 67.008 106.667 149.333 106.667Z" fill="#303C3E"/>
<path d="M256 106.667H362.667C444.992 106.667 512 173.675 512 256C512 338.325 444.992 405.333 362.667 405.333H256V106.667Z" fill="#303C3E"/>
<path d="M362.667 341.333C409.728 341.333 448 303.04 448 256C448 208.96 409.728 170.667 362.667 170.667C315.605 170.667 277.333 208.96 277.333 256C277.333 303.04 315.605 341.333 362.667 341.333Z" fill="#FAFAFA"/>
<path d="M362.667 170.667C409.728 170.667 448 208.96 448 256C448 303.04 409.728 341.333 362.667 341.333V170.667Z" fill="#DADADA"/>
</g>
<defs>
<clipPath id="clip0">
<rect width="512" height="512" fill="white" transform="matrix(-1 0 0 1 512 0)"/>
</clipPath>
</defs>
</svg>
