<svg width="512" height="512" viewBox="0 0 512 512" fill="none" xmlns="http://www.w3.org/2000/svg">
<g clip-path="url(#clip0)">
<path d="M362.667 106.667H149.333C67.008 106.667 0 173.675 0 256C0 338.325 67.008 405.333 149.333 405.333H362.667C444.992 405.333 512 338.325 512 256C512 173.675 444.992 106.667 362.667 106.667Z" fill="#AFAFAF"/>
<path d="M256 106.667H149.333C67.008 106.667 0 173.675 0 256C0 338.325 67.008 405.333 149.333 405.333H256V106.667Z" fill="#AFAFAF"/>
<path d="M149.333 341.333C102.272 341.333 64 303.04 64 256C64 208.96 102.272 170.667 149.333 170.667C196.395 170.667 234.667 208.96 234.667 256C234.667 303.04 196.395 341.333 149.333 341.333Z" fill="#3D3D3D"/>
<path d="M149.333 170.667C102.272 170.667 64 208.96 64 256C64 303.04 102.272 341.333 149.333 341.333V170.667Z" fill="#363636"/>
</g>
<defs>
<clipPath id="clip0">
<rect width="512" height="512" fill="white"/>
</clipPath>
</defs>
</svg>
